# xmcd
#
# Track frame offsets:
#	150
#	12505
#	28241
#	50995
#	61312
#	72318
#	79764
#	92120
#	108058
#	120550
#	132348
#	143576
#	153141
#	160667
#	174819
#	187285
#	197982
#	209880
#	226234
#	236823
#
# Disc length: 3290 seconds
#
# Revision: 1
# Processed by: cddbd v1.5.2PL0 Copyright (c) Steve Scherf et al.
# Submitted via: audiograbber 1.83.01
#
DISCID=1e0cd814
DTITLE=Various Artist - Out and Out Country CD 3
DYEAR=2012
DGENRE=Country
TTITLE0=Johnny Cash - Folsom Prison Blues
TTITLE1=Doug Stone - A Jukebox With A Country Song
TTITLE2=Restless Heart - Fast Movin' Train
TTITLE3=Faron Young - Hello Walls
TTITLE4=Porter Wagoner - Misery Loves Company
TTITLE5=Buck Owens - Down On The Corner Of Love
TTITLE6=Johnny Paycheck - Take This Job And Shove It
TTITLE7=Pam Tillis - Mi Vida Loca (My Crazy Life)
TTITLE8=Moe Bandy - Two Lonely People
TTITLE9=Kenny Rogers - Elvira
TTITLE10=Patsy Cline - Just Out Of Reach
TTITLE11=Lynn Anderson - Snowbird
TTITLE12=Mickey Gilley - Lookin' For Love
TTITLE13=Freddy Fender - Whiskey River
TTITLE14=Jim Reeves - Four Walls
TTITLE15=Billie Jo Spears - I'm So Lonesome I Could Cry
TTITLE16=Lee Greenwood - God Bless The USA
TTITLE17=Janie Fricke - It Ain't Easy Bein' Easy (Harrington - Gray - Taylor)
TTITLE18=Jack Greene - What Locks The Door
TTITLE19=Willie Nelson - Broken Promises
EXTD=
EXTT0=
EXTT1=
EXTT2=
EXTT3=
EXTT4=
EXTT5=
EXTT6=
EXTT7=
EXTT8=
EXTT9=
EXTT10=
EXTT11=
EXTT12=
EXTT13=
EXTT14=
EXTT15=
EXTT16=
EXTT17=
EXTT18=
EXTT19=
PLAYORDER=
